<svg width="30" height="30" viewBox="0 0 30 30" fill="none" xmlns="http://www.w3.org/2000/svg">
<path d="M23.5832 23.5C22.0107 23.5 20.7498 24.7608 20.7498 26.3333C20.7498 27.0848 21.0483 27.8055 21.5797 28.3368C22.1111 28.8682 22.8317 29.1667 23.5832 29.1667C24.3346 29.1667 25.0553 28.8682 25.5866 28.3368C26.118 27.8055 26.4165 27.0848 26.4165 26.3333C26.4165 25.5819 26.118 24.8612 25.5866 24.3299C25.0553 23.7985 24.3346 23.5 23.5832 23.5ZM0.916504 0.833336V3.66667H3.74984L8.84984 14.4192L6.92317 17.89C6.71067 18.2867 6.58317 18.7542 6.58317 19.25C6.58317 20.0014 6.88168 20.7221 7.41303 21.2535C7.94439 21.7848 8.66506 22.0833 9.4165 22.0833H26.4165V19.25H10.0115C9.91757 19.25 9.82749 19.2127 9.76107 19.1463C9.69465 19.0799 9.65734 18.9898 9.65734 18.8958C9.65734 18.825 9.6715 18.7683 9.69984 18.7258L10.9748 16.4167H21.529C22.5915 16.4167 23.5265 15.8217 24.0082 14.9575L29.0798 5.79167C29.179 5.565 29.2498 5.32417 29.2498 5.08334C29.2498 4.70761 29.1006 4.34728 28.8349 4.0816C28.5692 3.81593 28.2089 3.66667 27.8332 3.66667H6.88067L5.549 0.833336M9.4165 23.5C7.844 23.5 6.58317 24.7608 6.58317 26.3333C6.58317 27.0848 6.88168 27.8055 7.41303 28.3368C7.94439 28.8682 8.66506 29.1667 9.4165 29.1667C10.168 29.1667 10.8886 28.8682 11.42 28.3368C11.9513 27.8055 12.2498 27.0848 12.2498 26.3333C12.2498 25.5819 11.9513 24.8612 11.42 24.3299C10.8886 23.7985 10.168 23.5 9.4165 23.5Z" fill="#3E4826"/>
<path d="M23.5832 23.5C22.0107 23.5 20.7498 24.7608 20.7498 26.3333C20.7498 27.0848 21.0483 27.8055 21.5797 28.3368C22.1111 28.8682 22.8317 29.1667 23.5832 29.1667C24.3346 29.1667 25.0553 28.8682 25.5866 28.3368C26.118 27.8055 26.4165 27.0848 26.4165 26.3333C26.4165 25.5819 26.118 24.8612 25.5866 24.3299C25.0553 23.7985 24.3346 23.5 23.5832 23.5ZM0.916504 0.833336V3.66667H3.74984L8.84984 14.4192L6.92317 17.89C6.71067 18.2867 6.58317 18.7542 6.58317 19.25C6.58317 20.0014 6.88168 20.7221 7.41303 21.2535C7.94439 21.7848 8.66506 22.0833 9.4165 22.0833H26.4165V19.25H10.0115C9.91757 19.25 9.82749 19.2127 9.76107 19.1463C9.69465 19.0799 9.65734 18.9898 9.65734 18.8958C9.65734 18.825 9.6715 18.7683 9.69984 18.7258L10.9748 16.4167H21.529C22.5915 16.4167 23.5265 15.8217 24.0082 14.9575L29.0798 5.79167C29.179 5.565 29.2498 5.32417 29.2498 5.08334C29.2498 4.70761 29.1006 4.34728 28.8349 4.0816C28.5692 3.81593 28.2089 3.66667 27.8332 3.66667H6.88067L5.549 0.833336M9.4165 23.5C7.844 23.5 6.58317 24.7608 6.58317 26.3333C6.58317 27.0848 6.88168 27.8055 7.41303 28.3368C7.94439 28.8682 8.66506 29.1667 9.4165 29.1667C10.168 29.1667 10.8886 28.8682 11.42 28.3368C11.9513 27.8055 12.2498 27.0848 12.2498 26.3333C12.2498 25.5819 11.9513 24.8612 11.42 24.3299C10.8886 23.7985 10.168 23.5 9.4165 23.5Z" fill="url(#paint0_linear_947_791)" fill-opacity="0.5"/>
<defs>
<linearGradient id="paint0_linear_947_791" x1="15.0832" y1="0.833336" x2="15.0832" y2="29.1667" gradientUnits="userSpaceOnUse">
<stop stop-opacity="0"/>
<stop offset="1"/>
</linearGradient>
</defs>
</svg>
