<svg width="26" height="26" viewBox="0 0 26 26" fill="none" xmlns="http://www.w3.org/2000/svg">
<g clip-path="url(#clip0_2105_552)">
<path d="M12.6318 4.28531L23.1572 7.7814L22.6592 9.26285L20.2676 8.46109L22.2588 14.4103H23.5098V15.964H23.2422C23.0803 16.4253 22.8538 16.8463 22.5625 17.2267C22.2712 17.6071 21.9268 17.935 21.5303 18.2101C21.1338 18.4852 20.7126 18.6953 20.2676 18.841C19.8226 18.9866 19.3493 19.0634 18.8477 19.0714C18.3622 19.0714 17.8889 18.9992 17.4277 18.8537C16.9664 18.708 16.5408 18.497 16.1523 18.2218C15.764 17.9467 15.4241 17.6187 15.1328 17.2384C14.8415 16.8581 14.615 16.4333 14.4531 15.964H14.1855V14.4103H15.4365L17.7061 7.61148L12.6318 5.92398V20.6496C13.9996 20.7386 15.2827 21.0427 16.4805 21.5607C17.6782 22.0786 18.7787 22.8029 19.7822 23.7336H21.9551V25.2873H1.75488V23.7336H3.92773C4.92316 22.811 6.02366 22.0904 7.22949 21.5724C8.43539 21.0544 9.71846 20.7467 11.0781 20.6496V5.4025L6.29492 3.81168L8.27344 9.7482H9.52441V11.3019H9.25684C9.09498 11.7632 8.86848 12.1842 8.57715 12.5646C8.28589 12.9449 7.9423 13.2729 7.5459 13.548C7.14938 13.8231 6.72827 14.0342 6.2832 14.1798C5.83807 14.3255 5.36409 14.4022 4.8623 14.4103C4.37685 14.4103 3.90357 14.3372 3.44238 14.1916C2.98107 14.0459 2.55547 13.8359 2.16699 13.5607C1.7786 13.2856 1.43877 12.9576 1.14746 12.5773C0.856104 12.1969 0.629639 11.7713 0.467773 11.3019H0.201172V9.7482H1.45117L3.72168 2.95035L0.541016 1.89371L1.03809 0.424957L11.0781 3.76382V0.424957H12.6318V4.28531ZM17.0752 14.4103H20.6201L18.8477 9.09293L17.0752 14.4103ZM3.08984 9.7482H6.63477L4.8623 4.43082L3.08984 9.7482Z" fill="#3E4826"/>
</g>
<defs>
<clipPath id="clip0_2105_552">
<rect width="24.8625" height="24.8625" fill="white" transform="translate(0.199219 0.424957)"/>
</clipPath>
</defs>
</svg>
