<svg width="24" height="24" viewBox="0 0 24 24" fill="none" xmlns="http://www.w3.org/2000/svg">
<path fill-rule="evenodd" clip-rule="evenodd" d="M4.18983 7.262C5.93983 5.577 8.51683 4 11.9998 4C15.4828 4 18.0598 5.577 19.8098 7.262C21.0355 8.45235 22.0502 9.84209 22.8108 11.372C23.0038 11.771 23.0038 12.229 22.8108 12.627C22.0506 14.1572 21.0362 15.5473 19.8108 16.738C18.0598 18.423 15.4828 20 11.9998 20C8.51683 20 5.93983 18.423 4.18983 16.738C2.96418 15.5476 1.94944 14.1579 1.18883 12.628C1.09412 12.4324 1.04492 12.2178 1.04492 12.0005C1.04492 11.7832 1.09412 11.5686 1.18883 11.373C1.94904 9.8428 2.96445 8.45273 4.18983 7.262ZM11.9998 15C12.7955 15 13.5585 14.6839 14.1212 14.1213C14.6838 13.5587 14.9998 12.7956 14.9998 12C14.9998 11.2044 14.6838 10.4413 14.1212 9.87868C13.5585 9.31607 12.7955 9 11.9998 9C11.2042 9 10.4411 9.31607 9.87851 9.87868C9.3159 10.4413 8.99983 11.2044 8.99983 12C8.99983 12.7956 9.3159 13.5587 9.87851 14.1213C10.4411 14.6839 11.2042 15 11.9998 15Z"  fill="currentColor"/>
</svg>
