<svg width="28" height="25" viewBox="0 0 28 25" fill="none" xmlns="http://www.w3.org/2000/svg">
<path d="M20.457 2.37604C21.947 2.37612 23.1315 2.86589 24.1084 3.84283C25.0853 4.8198 25.5752 6.00417 25.5752 7.4942C25.5752 8.18247 25.4645 8.87497 25.2354 9.57623L25.1299 9.87799C24.8374 10.6594 24.2937 11.6057 23.4414 12.7237C22.6971 13.7 21.7008 14.8318 20.4414 16.1221L19.8857 16.6846C18.3566 18.2137 16.3966 20.062 14.001 22.2325L13.874 22.3467L13.7529 22.2374C11.9695 20.6084 10.4223 19.1598 9.10938 17.8907L7.875 16.6817C6.34147 15.1558 5.15875 13.8376 4.30957 12.7227C3.45666 11.6029 2.91263 10.6571 2.62012 9.87799C2.31898 9.07578 2.17503 8.28404 2.17578 7.49615V7.4942C2.17582 6.00413 2.66559 4.81982 3.64258 3.84283C4.61956 2.86585 5.80387 2.37608 7.29395 2.37604C8.31794 2.37604 9.27041 2.63404 10.1758 3.16315C11.084 3.69392 11.9177 4.48654 12.6631 5.59088L13.875 7.38678L15.0879 5.59088C15.8332 4.48658 16.667 3.69391 17.5752 3.16315C18.4805 2.63409 19.4331 2.37604 20.457 2.37604Z" stroke="currentColor" stroke-width="2.925"/>
</svg>
