<svg width="28" height="25" viewBox="0 0 28 25" fill="none" xmlns="http://www.w3.org/2000/svg">
<path d="M20.457 2.37601C21.947 2.37609 23.1315 2.86586 24.1084 3.8428C25.0853 4.81977 25.5752 6.00415 25.5752 7.49417C25.5752 8.18244 25.4645 8.87494 25.2354 9.5762L25.1299 9.87796C24.8374 10.6594 24.2937 11.6056 23.4414 12.7237C22.6971 13.6999 21.7008 14.8318 20.4414 16.1221L19.8857 16.6846C18.3566 18.2137 16.3966 20.062 14.001 22.2325L13.874 22.3467L13.7529 22.2373C11.9695 20.6084 10.4223 19.1597 9.10938 17.8907L7.875 16.6817C6.34147 15.1558 5.15875 13.8375 4.30957 12.7227C3.45666 11.6029 2.91263 10.6571 2.62012 9.87796C2.31898 9.07575 2.17503 8.28401 2.17578 7.49612V7.49417C2.17582 6.0041 2.66559 4.81979 3.64258 3.8428C4.61956 2.86582 5.80387 2.37605 7.29395 2.37601C8.31794 2.37601 9.27041 2.63401 10.1758 3.16312C11.084 3.6939 11.9177 4.48651 12.6631 5.59085L13.875 7.38675L15.0879 5.59085C15.8332 4.48656 16.667 3.69388 17.5752 3.16312C18.4805 2.63407 19.4331 2.37601 20.457 2.37601Z" fill="currentColor"/>
<path d="M20.457 2.37601C21.947 2.37609 23.1315 2.86586 24.1084 3.8428C25.0853 4.81977 25.5752 6.00415 25.5752 7.49417C25.5752 8.18244 25.4645 8.87494 25.2354 9.5762L25.1299 9.87796C24.8374 10.6594 24.2937 11.6056 23.4414 12.7237C22.6971 13.6999 21.7008 14.8318 20.4414 16.1221L19.8857 16.6846C18.3566 18.2137 16.3966 20.062 14.001 22.2325L13.874 22.3467L13.7529 22.2373C11.9695 20.6084 10.4223 19.1597 9.10938 17.8907L7.875 16.6817C6.34147 15.1558 5.15875 13.8375 4.30957 12.7227C3.45666 11.6029 2.91263 10.6571 2.62012 9.87796C2.31898 9.07575 2.17503 8.28401 2.17578 7.49612V7.49417C2.17582 6.0041 2.66559 4.81979 3.64258 3.8428C4.61956 2.86582 5.80387 2.37605 7.29395 2.37601C8.31794 2.37601 9.27041 2.63401 10.1758 3.16312C11.084 3.6939 11.9177 4.48651 12.6631 5.59085L13.875 7.38675L15.0879 5.59085C15.8332 4.48656 16.667 3.69388 17.5752 3.16312C18.4805 2.63407 19.4331 2.37601 20.457 2.37601Z" fill="url(#paint0_linear_2105_551)" fill-opacity="0.5"/>
<path d="M20.457 2.37601C21.947 2.37609 23.1315 2.86586 24.1084 3.8428C25.0853 4.81977 25.5752 6.00415 25.5752 7.49417C25.5752 8.18244 25.4645 8.87494 25.2354 9.5762L25.1299 9.87796C24.8374 10.6594 24.2937 11.6056 23.4414 12.7237C22.6971 13.6999 21.7008 14.8318 20.4414 16.1221L19.8857 16.6846C18.3566 18.2137 16.3966 20.062 14.001 22.2325L13.874 22.3467L13.7529 22.2373C11.9695 20.6084 10.4223 19.1597 9.10938 17.8907L7.875 16.6817C6.34147 15.1558 5.15875 13.8375 4.30957 12.7227C3.45666 11.6029 2.91263 10.6571 2.62012 9.87796C2.31898 9.07575 2.17503 8.28401 2.17578 7.49612V7.49417C2.17582 6.0041 2.66559 4.81979 3.64258 3.8428C4.61956 2.86582 5.80387 2.37605 7.29395 2.37601C8.31794 2.37601 9.27041 2.63401 10.1758 3.16312C11.084 3.6939 11.9177 4.48651 12.6631 5.59085L13.875 7.38675L15.0879 5.59085C15.8332 4.48656 16.667 3.69388 17.5752 3.16312C18.4805 2.63407 19.4331 2.37601 20.457 2.37601Z" stroke="currentColor" stroke-width="2.925"/>
<path d="M20.457 2.37601C21.947 2.37609 23.1315 2.86586 24.1084 3.8428C25.0853 4.81977 25.5752 6.00415 25.5752 7.49417C25.5752 8.18244 25.4645 8.87494 25.2354 9.5762L25.1299 9.87796C24.8374 10.6594 24.2937 11.6056 23.4414 12.7237C22.6971 13.6999 21.7008 14.8318 20.4414 16.1221L19.8857 16.6846C18.3566 18.2137 16.3966 20.062 14.001 22.2325L13.874 22.3467L13.7529 22.2373C11.9695 20.6084 10.4223 19.1597 9.10938 17.8907L7.875 16.6817C6.34147 15.1558 5.15875 13.8375 4.30957 12.7227C3.45666 11.6029 2.91263 10.6571 2.62012 9.87796C2.31898 9.07575 2.17503 8.28401 2.17578 7.49612V7.49417C2.17582 6.0041 2.66559 4.81979 3.64258 3.8428C4.61956 2.86582 5.80387 2.37605 7.29395 2.37601C8.31794 2.37601 9.27041 2.63401 10.1758 3.16312C11.084 3.6939 11.9177 4.48651 12.6631 5.59085L13.875 7.38675L15.0879 5.59085C15.8332 4.48656 16.667 3.69388 17.5752 3.16312C18.4805 2.63407 19.4331 2.37601 20.457 2.37601Z" stroke="url(#paint1_linear_2105_551)" stroke-opacity="0.5" stroke-width="2.925"/>
<defs>
<linearGradient id="paint0_linear_2105_551" x1="13.8754" y1="0.913116" x2="13.8754" y2="24.319" gradientUnits="userSpaceOnUse">
<stop stop-opacity="0"/>
<stop offset="1"/>
</linearGradient>
<linearGradient id="paint1_linear_2105_551" x1="13.8754" y1="0.913116" x2="13.8754" y2="24.319" gradientUnits="userSpaceOnUse">
<stop stop-opacity="0"/>
<stop offset="1"/>
</linearGradient>
</defs>
</svg>
