<svg width="16" height="16" viewBox="0 0 16 16" fill="none" xmlns="http://www.w3.org/2000/svg">
<path d="M8 15.5L7.32622 14.858C5.87556 13.4608 4.67556 12.2649 3.72622 11.2701C2.77748 10.2747 2.02845 9.39684 1.47911 8.6364C0.92978 7.87597 0.54578 7.18864 0.327114 6.57442C0.108447 5.9602 -0.00059019 5.34129 2.4024e-06 4.7177C2.4024e-06 3.52549 0.384002 2.52449 1.152 1.7147C1.92 0.904899 2.86934 0.5 4 0.5C4.78222 0.5 5.51556 0.710885 6.2 1.13265C6.88445 1.55442 7.48445 2.16802 8 2.97344C8.51556 2.16802 9.11556 1.55442 9.8 1.13265C10.4844 0.710885 11.2178 0.5 12 0.5C13.1307 0.5 14.08 0.904899 14.848 1.7147C15.616 2.52449 16 3.52549 16 4.7177C16 5.34004 15.891 5.95864 15.6729 6.57348C15.4542 7.18958 15.0702 7.87753 14.5209 8.63734C13.9716 9.39715 13.2252 10.2747 12.2818 11.2701C11.3384 12.2649 10.1354 13.4608 8.67289 14.858L8 15.5Z" fill="#3E4826"/>
</svg>
