<svg width="35" height="34" viewBox="0 0 35 34" fill="none" xmlns="http://www.w3.org/2000/svg">
<path d="M17.5 27.8432L16.4262 26.8727C14.1142 24.761 12.2017 22.9533 10.6887 21.4497C9.17662 19.9452 7.98284 18.6183 7.10734 17.4689C6.23184 16.3195 5.61984 15.2806 5.27134 14.3522C4.92284 13.4239 4.74906 12.4884 4.75 11.5458C4.75 9.74383 5.362 8.23083 6.586 7.00683C7.81 5.78283 9.323 5.17083 11.125 5.17083C12.3717 5.17083 13.5404 5.48958 14.6313 6.12708C15.7221 6.76458 16.6783 7.69202 17.5 8.90941C18.3217 7.69202 19.2779 6.76458 20.3688 6.12708C21.4596 5.48958 22.6283 5.17083 23.875 5.17083C25.677 5.17083 27.19 5.78283 28.414 7.00683C29.638 8.23083 30.25 9.74383 30.25 11.5458C30.25 12.4865 30.0762 13.4215 29.7287 14.3508C29.3802 15.2821 28.7682 16.3219 27.8927 17.4703C27.0172 18.6188 25.8276 19.9452 24.3241 21.4497C22.8205 22.9533 20.9033 24.761 18.5724 26.8727L17.5 27.8432Z" fill="#3E4826"/>
<path d="M17.5 27.8432L16.4262 26.8727C14.1142 24.761 12.2017 22.9533 10.6887 21.4497C9.17662 19.9452 7.98284 18.6183 7.10734 17.4689C6.23184 16.3195 5.61984 15.2806 5.27134 14.3522C4.92284 13.4239 4.74906 12.4884 4.75 11.5458C4.75 9.74383 5.362 8.23083 6.586 7.00683C7.81 5.78283 9.323 5.17083 11.125 5.17083C12.3717 5.17083 13.5404 5.48958 14.6313 6.12708C15.7221 6.76458 16.6783 7.69202 17.5 8.90941C18.3217 7.69202 19.2779 6.76458 20.3688 6.12708C21.4596 5.48958 22.6283 5.17083 23.875 5.17083C25.677 5.17083 27.19 5.78283 28.414 7.00683C29.638 8.23083 30.25 9.74383 30.25 11.5458C30.25 12.4865 30.0762 13.4215 29.7287 14.3508C29.3802 15.2821 28.7682 16.3219 27.8927 17.4703C27.0172 18.6188 25.8276 19.9452 24.3241 21.4497C22.8205 22.9533 20.9033 24.761 18.5724 26.8727L17.5 27.8432Z" fill="url(#paint0_linear_947_792)" fill-opacity="0.5"/>
<defs>
<linearGradient id="paint0_linear_947_792" x1="17.5" y1="5.17083" x2="17.5" y2="27.8432" gradientUnits="userSpaceOnUse">
<stop stop-opacity="0"/>
<stop offset="1"/>
</linearGradient>
</defs>
</svg>
