<svg width="34" height="34" viewBox="0 0 34 34" fill="none" xmlns="http://www.w3.org/2000/svg">
<path d="M18.7476 0C20.66 0.00509988 21.6307 0.0152996 22.4687 0.0390991L22.7985 0.0509987C23.1793 0.0645984 23.555 0.0815979 24.0089 0.101997C25.8176 0.186995 27.0517 0.472589 28.1345 0.892479C29.2565 1.32427 30.2016 1.90905 31.1468 2.85253C32.0115 3.70206 32.6804 4.73009 33.1068 5.86486C33.5267 6.94773 33.8123 8.1819 33.8973 9.99236C33.9177 10.4445 33.9347 10.8202 33.9483 11.2027L33.9585 11.5325C33.984 12.3689 33.9942 13.3396 33.9976 15.252L33.9993 16.5202V18.7471C34.0034 19.9871 33.9904 21.2271 33.9602 22.4667L33.95 22.7964C33.9364 23.1789 33.9194 23.5546 33.899 24.0068C33.814 25.8173 33.525 27.0497 33.1068 28.1343C32.6804 29.2691 32.0115 30.2971 31.1468 31.1466C30.2973 32.0114 29.2693 32.6803 28.1345 33.1067C27.0517 33.5266 25.8176 33.8122 24.0089 33.8972L22.7985 33.9482L22.4687 33.9584C21.6307 33.9822 20.66 33.9941 18.7476 33.9975L17.4795 33.9992H15.2543C14.0138 34.0036 12.7733 33.9905 11.5332 33.9601L11.2034 33.9499C10.7999 33.9346 10.3964 33.917 9.99306 33.8972C8.18435 33.8122 6.95022 33.5266 5.86567 33.1067C4.73154 32.6801 3.70413 32.0112 2.85512 31.1466C1.98977 30.2973 1.32029 29.2692 0.893422 28.1343C0.473543 27.0514 0.187957 25.8173 0.102962 24.0068L0.0519643 22.7964L0.0434649 22.4667C0.0121288 21.2271 -0.0020387 19.9871 0.000966906 18.7471V15.252C-0.00373828 14.0121 0.00872908 12.7721 0.0383651 11.5325L0.0502645 11.2027C0.0638638 10.8202 0.0808629 10.4445 0.101262 9.99236C0.186258 8.1819 0.471843 6.94943 0.891722 5.86486C1.31958 4.72962 1.99025 3.70155 2.85682 2.85253C3.70534 1.98819 4.73215 1.31929 5.86567 0.892479C6.95022 0.472589 8.18265 0.186995 9.99306 0.101997C10.4452 0.0815979 10.8226 0.0645984 11.2034 0.0509987L11.5332 0.0407989C12.7727 0.0105953 14.0127 -0.00243893 15.2526 0.00169984L18.7476 0ZM17.0001 8.49979C14.7459 8.49979 12.584 9.39531 10.99 10.9893C9.39603 12.5833 8.50054 14.7453 8.50054 16.9996C8.50054 19.2539 9.39603 21.4158 10.99 23.0098C12.584 24.6039 14.7459 25.4994 17.0001 25.4994C19.2543 25.4994 21.4162 24.6039 23.0102 23.0098C24.6042 21.4158 25.4997 19.2539 25.4997 16.9996C25.4997 14.7453 24.6042 12.5833 23.0102 10.9893C21.4162 9.39531 19.2543 8.49979 17.0001 8.49979ZM17.0001 11.8997C17.6698 11.8996 18.333 12.0314 18.9518 12.2876C19.5705 12.5438 20.1328 12.9193 20.6064 13.3928C21.0801 13.8663 21.4558 14.4285 21.7122 15.0472C21.9686 15.6659 22.1006 16.329 22.1007 16.9987C22.1008 17.6685 21.969 18.3317 21.7128 18.9504C21.4566 19.5692 21.0811 20.1315 20.6076 20.6051C20.1341 21.0788 19.572 21.4545 18.9533 21.7109C18.3346 21.9673 17.6715 22.0994 17.0018 22.0995C15.6493 22.0995 14.3521 21.5622 13.3957 20.6057C12.4394 19.6493 11.9021 18.3522 11.9021 16.9996C11.9021 15.647 12.4394 14.3498 13.3957 13.3934C14.3521 12.437 15.6493 11.8997 17.0018 11.8997M25.9264 5.94986C25.3628 5.94986 24.8223 6.17373 24.4238 6.57224C24.0253 6.97074 23.8015 7.51123 23.8015 8.0748C23.8015 8.63838 24.0253 9.17886 24.4238 9.57737C24.8223 9.97587 25.3628 10.1998 25.9264 10.1998C26.4899 10.1998 27.0304 9.97587 27.4289 9.57737C27.8274 9.17886 28.0513 8.63838 28.0513 8.0748C28.0513 7.51123 27.8274 6.97074 27.4289 6.57224C27.0304 6.17373 26.4899 5.94986 25.9264 5.94986Z" fill="#F0F1E6"/>
</svg>
