<svg width="46" height="32" viewBox="0 0 46 32" fill="none" xmlns="http://www.w3.org/2000/svg">
<path d="M21.672 22.0749C21.768 22.1564 21.8673 22.2366 21.9699 22.3154C19.9706 23.6423 17.6235 24.3488 15.2236 24.3462C13.624 24.3475 12.0398 24.0336 10.5617 23.4225C9.08352 22.8113 7.7404 21.915 6.60911 20.7846C5.47782 19.6543 4.58057 18.3121 3.96866 16.8349C3.35675 15.3577 3.04219 13.7744 3.04297 12.1756C3.04276 9.97362 3.64009 7.81278 4.77133 5.92322C5.90258 4.03366 7.52539 2.48614 9.46695 1.44545C11.4085 0.404761 13.5961 -0.0901271 15.7968 0.0134881C17.9975 0.117103 20.1289 0.815341 21.9639 2.03385C21.8653 2.11862 21.7667 2.19552 21.6917 2.28227C20.2695 3.50915 19.1285 5.02789 18.3463 6.7351C17.5641 8.44231 17.159 10.2979 17.1587 12.1756C17.1587 15.9709 18.8019 19.5789 21.672 22.0749ZM30.2744 0.00312418C27.8767 -0.00153643 25.5316 0.705216 23.5361 2.03385C23.6327 2.11862 23.7314 2.19552 23.8063 2.28227C26.6902 4.77237 28.3413 8.38232 28.3413 12.1756C28.3413 15.9689 26.6942 19.575 23.828 22.0749C23.7294 22.1564 23.6301 22.2366 23.5302 22.3154C25.5278 23.6427 27.8737 24.3492 30.2724 24.3462C31.8847 24.3668 33.485 24.0673 34.9805 23.4649C36.476 22.8626 37.8369 21.9694 38.9844 20.8372C40.1318 19.705 41.0429 18.3564 41.6648 16.8695C42.2867 15.3827 42.607 13.7872 42.6071 12.1756C42.6073 10.5641 42.2872 8.96856 41.6656 7.4816C41.0439 5.99463 40.1331 4.64585 38.9858 3.51349C37.8385 2.38113 36.4777 1.48774 34.9823 0.885147C33.4869 0.282551 31.8867 -0.0172543 30.2744 0.00312418ZM22.749 2.61349C21.2986 3.74983 20.1262 5.20152 19.321 6.85837C18.5157 8.51521 18.0987 10.3336 18.1016 12.1756C18.0978 14.0186 18.5144 15.8382 19.3197 17.4962C20.125 19.1541 21.2978 20.6067 22.749 21.7437C24.1995 20.6059 25.3719 19.1532 26.1775 17.4955C26.983 15.8377 27.4005 14.0185 27.3984 12.1756C27.4011 10.3335 26.9838 8.51495 26.1782 6.85809C25.3726 5.20124 24.1998 3.74963 22.749 2.61349Z" fill="#0E120A"/>
<path d="M5.79006 27.7291C6.11469 27.7291 6.40128 27.795 6.64982 27.9269C6.90344 28.0537 7.10126 28.2515 7.24328 28.5203C7.39038 28.7841 7.46393 29.124 7.46393 29.5399V31.8833H6.277V29.7225C6.277 29.3928 6.20853 29.1493 6.07158 28.9921C5.93462 28.8348 5.74187 28.7562 5.49333 28.7562C5.32087 28.7562 5.16616 28.7968 5.02921 28.8779C4.89226 28.954 4.78574 29.0707 4.70966 29.2279C4.63357 29.3852 4.59553 29.5855 4.59553 29.829V31.8833H3.4086V29.7225C3.4086 29.3928 3.34013 29.1493 3.20317 28.9921C3.07129 28.8348 2.88108 28.7562 2.63254 28.7562C2.46008 28.7562 2.30537 28.7968 2.16842 28.8779C2.03147 28.954 1.92495 29.0707 1.84886 29.2279C1.77278 29.3852 1.73474 29.5855 1.73474 29.829V31.8833H0.547811V27.7899H1.68148V28.9084L1.46844 28.5812C1.61046 28.3022 1.81082 28.0917 2.06951 27.9497C2.33327 27.8026 2.63254 27.7291 2.96731 27.7291C3.34266 27.7291 3.66983 27.8254 3.94881 28.0182C4.23286 28.2059 4.42053 28.495 4.51183 28.8856L4.09337 28.7714C4.23032 28.4519 4.44843 28.1983 4.7477 28.0106C5.05204 27.8229 5.39949 27.7291 5.79006 27.7291ZM11.0386 31.8833V31.0844L10.9625 30.9094V29.479C10.9625 29.2254 10.8839 29.0276 10.7267 28.8856C10.5745 28.7435 10.3386 28.6725 10.0191 28.6725C9.80096 28.6725 9.58539 28.708 9.37235 28.779C9.16439 28.845 8.98685 28.9363 8.83976 29.0529L8.41368 28.2236C8.63686 28.0664 8.9057 27.9446 9.22018 27.8584C9.53467 27.7722 9.85422 27.7291 10.1789 27.7291C10.8027 27.7291 11.2872 27.8762 11.6321 28.1704C11.977 28.4646 12.1495 28.9236 12.1495 29.5475V31.8833H11.0386ZM9.79082 31.9442C9.47126 31.9442 9.19736 31.8909 8.9691 31.7844C8.74085 31.6728 8.56585 31.5232 8.44412 31.3355C8.32238 31.1478 8.26151 30.9373 8.26151 30.704C8.26151 30.4605 8.31984 30.2475 8.43651 30.0649C8.55824 29.8823 8.74846 29.7402 9.00714 29.6388C9.26583 29.5323 9.60314 29.479 10.0191 29.479H11.1071V30.1714H10.1484C9.86944 30.1714 9.67669 30.217 9.57017 30.3083C9.46873 30.3996 9.418 30.5138 9.418 30.6507C9.418 30.8029 9.47633 30.9246 9.593 31.0159C9.71473 31.1022 9.87958 31.1453 10.0875 31.1453C10.2854 31.1453 10.4629 31.0996 10.6201 31.0083C10.7774 30.912 10.8915 30.7725 10.9625 30.5899L11.1451 31.1377C11.0589 31.4014 10.9017 31.6018 10.6734 31.7387C10.4451 31.8757 10.151 31.9442 9.79082 31.9442ZM14.6008 31.9442C14.2508 31.9442 13.9135 31.9036 13.5889 31.8224C13.2693 31.7362 13.0157 31.6297 12.828 31.5029L13.2237 30.6507C13.4114 30.7674 13.632 30.8638 13.8856 30.9398C14.1443 31.0109 14.3979 31.0464 14.6465 31.0464C14.9204 31.0464 15.1131 31.0134 15.2247 30.9475C15.3414 30.8815 15.3997 30.7902 15.3997 30.6736C15.3997 30.5772 15.3541 30.5062 15.2627 30.4605C15.1765 30.4098 15.0599 30.3717 14.9128 30.3464C14.7657 30.321 14.6033 30.2957 14.4258 30.2703C14.2534 30.2449 14.0784 30.212 13.9008 30.1714C13.7233 30.1257 13.561 30.0598 13.4139 29.9736C13.2668 29.8873 13.1476 29.7707 13.0563 29.6236C12.9701 29.4765 12.9269 29.2863 12.9269 29.0529C12.9269 28.7943 13.0005 28.566 13.1476 28.3682C13.2998 28.1704 13.5179 28.0157 13.8019 27.9041C14.086 27.7874 14.4258 27.7291 14.8215 27.7291C15.1004 27.7291 15.3845 27.7595 15.6736 27.8204C15.9627 27.8812 16.2037 27.97 16.3964 28.0867L16.0008 28.9312C15.803 28.8145 15.6026 28.7359 15.3997 28.6953C15.2019 28.6497 15.0091 28.6269 14.8215 28.6269C14.5577 28.6269 14.3649 28.6624 14.2432 28.7334C14.1215 28.8044 14.0606 28.8957 14.0606 29.0073C14.0606 29.1087 14.1037 29.1848 14.19 29.2355C14.2813 29.2863 14.4005 29.3268 14.5476 29.3573C14.6946 29.3877 14.8544 29.4156 15.0269 29.441C15.2044 29.4613 15.3819 29.4942 15.5595 29.5399C15.737 29.5855 15.8968 29.6515 16.0388 29.7377C16.1859 29.8189 16.3051 29.933 16.3964 30.0801C16.4877 30.2221 16.5334 30.4098 16.5334 30.6431C16.5334 30.8967 16.4573 31.1225 16.3051 31.3203C16.1529 31.513 15.9323 31.6652 15.6432 31.7768C15.3591 31.8884 15.0117 31.9442 14.6008 31.9442ZM18.9396 31.9442C18.4577 31.9442 18.0823 31.8224 17.8135 31.579C17.5447 31.3304 17.4102 30.9627 17.4102 30.4757V26.8845H18.5972V30.4605C18.5972 30.633 18.6428 30.7674 18.7341 30.8638C18.8254 30.9551 18.9497 31.0007 19.1069 31.0007C19.2946 31.0007 19.4544 30.95 19.5863 30.8485L19.9058 31.6855C19.7841 31.7717 19.637 31.8376 19.4645 31.8833C19.2972 31.9239 19.1222 31.9442 18.9396 31.9442ZM16.7787 28.7943V27.8812H19.6167V28.7943H16.7787ZM22.4773 31.9442C22.0106 31.9442 21.5997 31.8529 21.2447 31.6703C20.8947 31.4877 20.6233 31.2391 20.4306 30.9246C20.2378 30.6051 20.1415 30.2424 20.1415 29.8366C20.1415 29.4258 20.2353 29.0631 20.423 28.7486C20.6157 28.429 20.8769 28.1805 21.2066 28.003C21.5363 27.8204 21.9092 27.7291 22.3251 27.7291C22.7258 27.7291 23.0859 27.8153 23.4055 27.9878C23.7301 28.1551 23.9863 28.3986 24.174 28.7182C24.3616 29.0327 24.4555 29.4105 24.4555 29.8518C24.4555 29.8975 24.4529 29.9507 24.4479 30.0116C24.4428 30.0674 24.4377 30.1207 24.4326 30.1714H21.1077V29.479H23.8087L23.3522 29.6844C23.3522 29.4714 23.3091 29.2863 23.2229 29.129C23.1367 28.9718 23.0175 28.85 22.8653 28.7638C22.7131 28.6725 22.5356 28.6269 22.3327 28.6269C22.1298 28.6269 21.9497 28.6725 21.7925 28.7638C21.6403 28.85 21.5211 28.9743 21.4349 29.1366C21.3487 29.2939 21.3056 29.4816 21.3056 29.6997V29.8823C21.3056 30.1055 21.3537 30.3033 21.4501 30.4757C21.5516 30.6431 21.6911 30.7725 21.8686 30.8638C22.0512 30.95 22.2642 30.9931 22.5077 30.9931C22.7258 30.9931 22.916 30.9601 23.0783 30.8942C23.2457 30.8283 23.3979 30.7293 23.5348 30.5975L24.1663 31.2822C23.9787 31.4953 23.7428 31.6601 23.4588 31.7768C23.1747 31.8884 22.8475 31.9442 22.4773 31.9442ZM25.2457 31.8833V27.7899H26.3793V28.9464L26.2196 28.6117C26.3413 28.3225 26.5366 28.1044 26.8054 27.9573C27.0743 27.8052 27.4014 27.7291 27.7869 27.7291V28.8247C27.7362 28.8196 27.6905 28.8171 27.65 28.8171C27.6094 28.812 27.5663 28.8095 27.5206 28.8095C27.196 28.8095 26.9322 28.9033 26.7293 29.091C26.5315 29.2736 26.4326 29.5602 26.4326 29.9507V31.8833H25.2457ZM30.4412 31.9442C29.9999 31.9442 29.6068 31.8554 29.2618 31.6779C28.9169 31.4953 28.6455 31.2442 28.4477 30.9246C28.255 30.6051 28.1586 30.2424 28.1586 29.8366C28.1586 29.4258 28.255 29.0631 28.4477 28.7486C28.6455 28.429 28.9169 28.1805 29.2618 28.003C29.6068 27.8204 29.9999 27.7291 30.4412 27.7291C30.8723 27.7291 31.2477 27.8204 31.5672 28.003C31.8868 28.1805 32.1226 28.4367 32.2748 28.7714L31.3542 29.266C31.2477 29.0732 31.1132 28.9312 30.9509 28.8399C30.7937 28.7486 30.6212 28.703 30.4335 28.703C30.2306 28.703 30.048 28.7486 29.8857 28.8399C29.7234 28.9312 29.5941 29.0606 29.4977 29.2279C29.4064 29.3953 29.3607 29.5982 29.3607 29.8366C29.3607 30.075 29.4064 30.2779 29.4977 30.4453C29.5941 30.6127 29.7234 30.742 29.8857 30.8333C30.048 30.9246 30.2306 30.9703 30.4335 30.9703C30.6212 30.9703 30.7937 30.9272 30.9509 30.8409C31.1132 30.7496 31.2477 30.6051 31.3542 30.4073L32.2748 30.9094C32.1226 31.2391 31.8868 31.4953 31.5672 31.6779C31.2477 31.8554 30.8723 31.9442 30.4412 31.9442ZM35.469 31.8833V31.0844L35.3929 30.9094V29.479C35.3929 29.2254 35.3143 29.0276 35.1571 28.8856C35.0049 28.7435 34.769 28.6725 34.4495 28.6725C34.2314 28.6725 34.0158 28.708 33.8027 28.779C33.5948 28.845 33.4172 28.9363 33.2701 29.0529L32.8441 28.2236C33.0673 28.0664 33.3361 27.9446 33.6506 27.8584C33.9651 27.7722 34.2846 27.7291 34.6092 27.7291C35.2331 27.7291 35.7175 27.8762 36.0625 28.1704C36.4074 28.4646 36.5798 28.9236 36.5798 29.5475V31.8833H35.469ZM34.2212 31.9442C33.9016 31.9442 33.6277 31.8909 33.3995 31.7844C33.1712 31.6728 32.9962 31.5232 32.8745 31.3355C32.7528 31.1478 32.6919 30.9373 32.6919 30.704C32.6919 30.4605 32.7502 30.2475 32.8669 30.0649C32.9886 29.8823 33.1788 29.7402 33.4375 29.6388C33.6962 29.5323 34.0335 29.479 34.4495 29.479H35.5375V30.1714H34.5788C34.2998 30.1714 34.1071 30.217 34.0006 30.3083C33.8991 30.3996 33.8484 30.5138 33.8484 30.6507C33.8484 30.8029 33.9067 30.9246 34.0234 31.0159C34.1451 31.1022 34.31 31.1453 34.5179 31.1453C34.7158 31.1453 34.8933 31.0996 35.0505 31.0083C35.2078 30.912 35.3219 30.7725 35.3929 30.5899L35.5755 31.1377C35.4893 31.4014 35.332 31.6018 35.1038 31.7387C34.8755 31.8757 34.5813 31.9442 34.2212 31.9442ZM37.6541 31.8833V27.7899H38.7877V28.9464L38.6279 28.6117C38.7497 28.3225 38.945 28.1044 39.2138 27.9573C39.4826 27.8052 39.8098 27.7291 40.1953 27.7291V28.8247C40.1446 28.8196 40.0989 28.8171 40.0583 28.8171C40.0178 28.812 39.9746 28.8095 39.929 28.8095C39.6044 28.8095 39.3406 28.9033 39.1377 29.091C38.9399 29.2736 38.841 29.5602 38.841 29.9507V31.8833H37.6541ZM42.6289 31.9442C42.2434 31.9442 41.8959 31.8579 41.5865 31.6855C41.2771 31.5079 41.0311 31.2619 40.8485 30.9475C40.671 30.633 40.5822 30.2627 40.5822 29.8366C40.5822 29.4055 40.671 29.0327 40.8485 28.7182C41.0311 28.4037 41.2771 28.1602 41.5865 27.9878C41.8959 27.8153 42.2434 27.7291 42.6289 27.7291C42.9738 27.7291 43.2756 27.8052 43.5343 27.9573C43.793 28.1095 43.9933 28.3403 44.1354 28.6497C44.2774 28.9591 44.3484 29.3547 44.3484 29.8366C44.3484 30.3134 44.2799 30.7091 44.143 31.0235C44.006 31.333 43.8082 31.5637 43.5495 31.7159C43.2959 31.8681 42.989 31.9442 42.6289 31.9442ZM42.8343 30.9703C43.0271 30.9703 43.2021 30.9246 43.3593 30.8333C43.5165 30.742 43.6408 30.6127 43.7321 30.4453C43.8285 30.2728 43.8767 30.0699 43.8767 29.8366C43.8767 29.5982 43.8285 29.3953 43.7321 29.2279C43.6408 29.0606 43.5165 28.9312 43.3593 28.8399C43.2021 28.7486 43.0271 28.703 42.8343 28.703C42.6365 28.703 42.459 28.7486 42.3017 28.8399C42.1445 28.9312 42.0177 29.0606 41.9213 29.2279C41.83 29.3953 41.7843 29.5982 41.7843 29.8366C41.7843 30.0699 41.83 30.2728 41.9213 30.4453C42.0177 30.6127 42.1445 30.742 42.3017 30.8333C42.459 30.9246 42.6365 30.9703 42.8343 30.9703ZM43.9071 31.8833V31.0464L43.9299 29.829L43.8538 28.6193V26.2378H45.0408V31.8833H43.9071Z" fill="#0E120A"/>
</svg>
