<svg width="101" height="14" viewBox="0 0 101 14" fill="none" xmlns="http://www.w3.org/2000/svg">
<path d="M12.3889 3.61854C13.152 3.61854 13.8256 3.77354 14.4099 4.08355C15.006 4.38163 15.4711 4.84664 15.8049 5.47858C16.1507 6.0986 16.3236 6.89747 16.3236 7.87518V13.3838H13.5335V8.30443C13.5335 7.52941 13.3725 6.95708 13.0506 6.58746C12.7287 6.21783 12.2756 6.03302 11.6913 6.03302C11.286 6.03302 10.9223 6.12841 10.6004 6.31918C10.2784 6.49803 10.028 6.77227 9.84918 7.1419C9.67033 7.51152 9.58091 7.9825 9.58091 8.55482V13.3838H6.79084V8.30443C6.79084 7.52941 6.62987 6.95708 6.30794 6.58746C5.99793 6.21783 5.5508 6.03302 4.96656 6.03302C4.56116 6.03302 4.1975 6.12841 3.87557 6.31918C3.55364 6.49803 3.30325 6.77227 3.12439 7.1419C2.94554 7.51152 2.85612 7.9825 2.85612 8.55482V13.3838H0.066046V3.76162H2.73092V6.39072L2.23014 5.62166C2.564 4.96588 3.03497 4.47106 3.64306 4.1372C4.26308 3.79143 4.96656 3.61854 5.7535 3.61854C6.63583 3.61854 7.40489 3.84508 8.06068 4.29817C8.72839 4.73933 9.16955 5.41897 9.38417 6.33707L8.40049 6.06879C8.72242 5.31762 9.23513 4.72145 9.93861 4.28028C10.654 3.83912 11.4708 3.61854 12.3889 3.61854ZM23.4729 13.5269C22.4475 13.5269 21.5353 13.3122 20.7364 12.883C19.9495 12.4538 19.3235 11.8695 18.8585 11.1303C18.4054 10.3791 18.1789 9.52657 18.1789 8.5727C18.1789 7.60691 18.4054 6.75439 18.8585 6.01514C19.3235 5.26396 19.9495 4.67972 20.7364 4.2624C21.5353 3.83316 22.4475 3.61854 23.4729 3.61854C24.4864 3.61854 25.3925 3.83316 26.1914 4.2624C26.9903 4.67972 27.6162 5.258 28.0693 5.99725C28.5224 6.7365 28.749 7.59499 28.749 8.5727C28.749 9.52657 28.5224 10.3791 28.0693 11.1303C27.6162 11.8695 26.9903 12.4538 26.1914 12.883C25.3925 13.3122 24.4864 13.5269 23.4729 13.5269ZM23.4729 11.2376C23.9379 11.2376 24.3552 11.1303 24.7248 10.9156C25.0944 10.701 25.3866 10.397 25.6012 10.0035C25.8158 9.59811 25.9231 9.12118 25.9231 8.5727C25.9231 8.0123 25.8158 7.53537 25.6012 7.1419C25.3866 6.74842 25.0944 6.44438 24.7248 6.22976C24.3552 6.01514 23.9379 5.90783 23.4729 5.90783C23.0079 5.90783 22.5905 6.01514 22.2209 6.22976C21.8513 6.44438 21.5532 6.74842 21.3267 7.1419C21.112 7.53537 21.0047 8.0123 21.0047 8.5727C21.0047 9.12118 21.112 9.59811 21.3267 10.0035C21.5532 10.397 21.8513 10.701 22.2209 10.9156C22.5905 11.1303 23.0079 11.2376 23.4729 11.2376ZM36.4623 3.61854C37.2254 3.61854 37.9051 3.77354 38.5012 4.08355C39.1093 4.38163 39.5862 4.84664 39.932 5.47858C40.2778 6.0986 40.4507 6.89747 40.4507 7.87518V13.3838H37.6606V8.30443C37.6606 7.52941 37.4877 6.95708 37.142 6.58746C36.8081 6.21783 36.3312 6.03302 35.7111 6.03302C35.27 6.03302 34.8706 6.12841 34.5128 6.31918C34.1671 6.49803 33.8928 6.77823 33.6901 7.15978C33.4994 7.54133 33.404 8.03019 33.404 8.62636V13.3838H30.6139V3.76162H33.2788V6.42649L32.778 5.62166C33.1238 4.9778 33.6186 4.48298 34.2625 4.1372C34.9063 3.79143 35.6396 3.61854 36.4623 3.61854ZM47.6282 13.5269C46.6028 13.5269 45.6907 13.3122 44.8918 12.883C44.1048 12.4538 43.4789 11.8695 43.0138 11.1303C42.5608 10.3791 42.3342 9.52657 42.3342 8.5727C42.3342 7.60691 42.5608 6.75439 43.0138 6.01514C43.4789 5.26396 44.1048 4.67972 44.8918 4.2624C45.6907 3.83316 46.6028 3.61854 47.6282 3.61854C48.6417 3.61854 49.5479 3.83316 50.3467 4.2624C51.1456 4.67972 51.7716 5.258 52.2247 5.99725C52.6778 6.7365 52.9043 7.59499 52.9043 8.5727C52.9043 9.52657 52.6778 10.3791 52.2247 11.1303C51.7716 11.8695 51.1456 12.4538 50.3467 12.883C49.5479 13.3122 48.6417 13.5269 47.6282 13.5269ZM47.6282 11.2376C48.0932 11.2376 48.5105 11.1303 48.8802 10.9156C49.2498 10.701 49.5419 10.397 49.7565 10.0035C49.9711 9.59811 50.0785 9.12118 50.0785 8.5727C50.0785 8.0123 49.9711 7.53537 49.7565 7.1419C49.5419 6.74842 49.2498 6.44438 48.8802 6.22976C48.5105 6.01514 48.0932 5.90783 47.6282 5.90783C47.1632 5.90783 46.7459 6.01514 46.3762 6.22976C46.0066 6.44438 45.7085 6.74842 45.482 7.1419C45.2674 7.53537 45.1601 8.0123 45.1601 8.5727C45.1601 9.12118 45.2674 9.59811 45.482 10.0035C45.7085 10.397 46.0066 10.701 46.3762 10.9156C46.7459 11.1303 47.1632 11.2376 47.6282 11.2376ZM60.4567 13.5269C59.6101 13.5269 58.8828 13.348 58.2747 12.9903C57.6666 12.6326 57.2016 12.0901 56.8797 11.3628C56.5577 10.6235 56.3968 9.6935 56.3968 8.5727C56.3968 7.43998 56.5637 6.50996 56.8976 5.78263C57.2433 5.0553 57.7203 4.51279 58.3284 4.15509C58.9365 3.79739 59.6459 3.61854 60.4567 3.61854C61.3629 3.61854 62.1737 3.82123 62.8891 4.22663C63.6164 4.63202 64.1887 5.20435 64.606 5.9436C65.0353 6.68285 65.2499 7.55922 65.2499 8.5727C65.2499 9.57427 65.0353 10.4447 64.606 11.1839C64.1887 11.9232 63.6164 12.5015 62.8891 12.9188C62.1737 13.3242 61.3629 13.5269 60.4567 13.5269ZM54.7692 13.3838V0.11306H57.5593V5.71109L57.3805 8.55482L57.4341 11.4164V13.3838H54.7692ZM59.9738 11.2376C60.4388 11.2376 60.8502 11.1303 61.2079 10.9156C61.5775 10.701 61.8696 10.397 62.0842 10.0035C62.3108 9.59811 62.424 9.12118 62.424 8.5727C62.424 8.0123 62.3108 7.53537 62.0842 7.1419C61.8696 6.74842 61.5775 6.44438 61.2079 6.22976C60.8502 6.01514 60.4388 5.90783 59.9738 5.90783C59.5088 5.90783 59.0915 6.01514 58.7218 6.22976C58.3522 6.44438 58.0601 6.74842 57.8455 7.1419C57.6308 7.53537 57.5235 8.0123 57.5235 8.5727C57.5235 9.12118 57.6308 9.59811 57.8455 10.0035C58.0601 10.397 58.3522 10.701 58.7218 10.9156C59.0915 11.1303 59.5088 11.2376 59.9738 11.2376ZM72.8625 13.3838V11.5059L72.6837 11.0945V7.7321C72.6837 7.13593 72.4988 6.67092 72.1292 6.33707C71.7715 6.00321 71.2171 5.83629 70.4659 5.83629C69.9532 5.83629 69.4465 5.91975 68.9457 6.08668C68.4568 6.24168 68.0395 6.4563 67.6937 6.73054L66.6922 4.78107C67.2168 4.41144 67.8487 4.12528 68.588 3.92258C69.3272 3.71988 70.0784 3.61854 70.8415 3.61854C72.3081 3.61854 73.4468 3.96431 74.2575 4.65587C75.0683 5.34743 75.4737 6.42649 75.4737 7.89307V13.3838H72.8625ZM69.9294 13.5269C69.1782 13.5269 68.5343 13.4017 67.9978 13.1513C67.4612 12.889 67.0499 12.5372 66.7637 12.0961C66.4775 11.6549 66.3345 11.1601 66.3345 10.6116C66.3345 10.0393 66.4716 9.5385 66.7458 9.10926C67.032 8.68001 67.4791 8.34616 68.0872 8.10769C68.6953 7.8573 69.4882 7.7321 70.4659 7.7321H73.0235V9.35965H70.77C70.1142 9.35965 69.6611 9.46696 69.4107 9.68158C69.1722 9.8962 69.053 10.1645 69.053 10.4864C69.053 10.8441 69.1901 11.1303 69.4643 11.3449C69.7505 11.5476 70.138 11.6489 70.6269 11.6489C71.0919 11.6489 71.5092 11.5416 71.8788 11.327C72.2485 11.1005 72.5167 10.7726 72.6837 10.3433L73.1129 11.6311C72.9102 12.2511 72.5406 12.722 72.004 13.044C71.4675 13.3659 70.7759 13.5269 69.9294 13.5269ZM83.8473 3.61854C84.6104 3.61854 85.29 3.77354 85.8862 4.08355C86.4943 4.38163 86.9712 4.84664 87.317 5.47858C87.6628 6.0986 87.8357 6.89747 87.8357 7.87518V13.3838H85.0456V8.30443C85.0456 7.52941 84.8727 6.95708 84.5269 6.58746C84.1931 6.21783 83.7161 6.03302 83.0961 6.03302C82.655 6.03302 82.2555 6.12841 81.8978 6.31918C81.552 6.49803 81.2778 6.77823 81.0751 7.15978C80.8843 7.54133 80.7889 8.03019 80.7889 8.62636V13.3838H77.9989V3.76162H80.6638V6.42649L80.163 5.62166C80.5087 4.9778 81.0036 4.48298 81.6474 4.1372C82.2913 3.79143 83.0246 3.61854 83.8473 3.61854ZM92.6719 11.4164L92.7435 8.01827L97.2326 3.76162H100.559L96.2489 8.14346L94.8002 9.32388L92.6719 11.4164ZM90.3647 13.3838V0.11306H93.1548V13.3838H90.3647ZM97.5367 13.3838L94.2816 9.34176L96.0343 7.17767L100.917 13.3838H97.5367Z" fill="#0E120A"/>
</svg>
