<svg width="17" height="17" viewBox="0 0 17 17" fill="none" xmlns="http://www.w3.org/2000/svg">
<path d="M1 8.5C1 12.6422 4.28496 16 8.3374 16C12.3898 16 15.6748 12.6422 15.6748 8.5C15.6748 4.35775 12.3898 1 8.3374 1C4.28496 1 1 4.35775 1 8.5Z" stroke="#F0F1E6" stroke-width="1.3" stroke-linecap="round" stroke-linejoin="round"/>
<path d="M9.07129 1.0376C9.07129 1.0376 11.2725 4.0001 11.2725 8.5001C11.2725 13.0001 9.07129 15.9626 9.07129 15.9626M7.60381 15.9626C7.60381 15.9626 5.40259 13.0001 5.40259 8.5001C5.40259 4.0001 7.60381 1.0376 7.60381 1.0376M1.4624 11.1251H15.2127M1.4624 5.8751H15.2127" stroke="#F0F1E6" stroke-width="1.3" stroke-linecap="round" stroke-linejoin="round"/>
</svg>
