<svg width="20" height="20" viewBox="0 0 20 20" fill="none" xmlns="http://www.w3.org/2000/svg">
<path fill-rule="evenodd" clip-rule="evenodd" d="M6.875 1.25C6.77687 1.25 6.68011 1.2731 6.59256 1.31744C6.50502 1.36178 6.42914 1.42611 6.37108 1.50523C6.31302 1.58435 6.27441 1.67603 6.25837 1.77284C6.24233 1.86965 6.24931 1.96889 6.27875 2.0625L6.41625 2.5H4.375C4.20924 2.5 4.05027 2.56585 3.93306 2.68306C3.81585 2.80027 3.75 2.95924 3.75 3.125V18.125C3.75 18.2908 3.81585 18.4497 3.93306 18.5669C4.05027 18.6842 4.20924 18.75 4.375 18.75H15.625C15.7908 18.75 15.9497 18.6842 16.0669 18.5669C16.1842 18.4497 16.25 18.2908 16.25 18.125V3.125C16.25 2.95924 16.1842 2.80027 16.0669 2.68306C15.9497 2.56585 15.7908 2.5 15.625 2.5H13.585L13.7225 2.0625C13.752 1.96879 13.7589 1.86944 13.7428 1.77253C13.7267 1.67562 13.688 1.58387 13.6298 1.50473C13.5716 1.42558 13.4956 1.36127 13.4079 1.31702C13.3201 1.27276 13.2232 1.2498 13.125 1.25H6.875ZM7.725 2.5H12.275L11.8837 3.75H8.11625L7.725 2.5ZM13.75 8.75H6.25V7.5H13.75V8.75ZM13.75 11.875H6.25V10.625H13.75V11.875ZM6.25 15H11.25V13.75H6.25V15Z"  fill="currentColor"/>
</svg>
