<svg width="110" height="21" viewBox="0 0 110 21" fill="none" xmlns="http://www.w3.org/2000/svg">
<path d="M25.9803 20.2242V10.0866H30.3685C31.276 10.0866 32.058 10.2363 32.7146 10.5356C33.3711 10.8252 33.878 11.2452 34.2352 11.7955C34.5924 12.3459 34.7711 13.0024 34.7711 13.7651C34.7711 14.5182 34.5924 15.1699 34.2352 15.7202C33.878 16.2705 33.3711 16.6953 32.7146 16.9946C32.058 17.2843 31.276 17.4291 30.3685 17.4291H27.2837L28.3265 16.3719V20.2242H25.9803ZM28.3265 16.6326L27.2837 15.5175H30.2381C30.9622 15.5175 31.5029 15.363 31.8601 15.054C32.2174 14.7451 32.396 14.3154 32.396 13.7651C32.396 13.2051 32.2174 12.7707 31.8601 12.4617C31.5029 12.1528 30.9622 11.9983 30.2381 11.9983H27.2837L28.3265 10.8831V16.6326ZM36.2726 20.2242V12.4327H38.4304V14.634L38.1263 13.9968C38.358 13.4465 38.7297 13.0313 39.2414 12.7514C39.7531 12.4617 40.3759 12.3169 41.1096 12.3169V14.4023C41.0131 14.3927 40.9262 14.3878 40.8489 14.3878C40.7717 14.3782 40.6896 14.3734 40.6027 14.3734C39.9848 14.3734 39.4828 14.552 39.0966 14.9092C38.7201 15.2568 38.5318 15.8023 38.5318 16.5457V20.2242H36.2726ZM42.4671 20.2242V12.4327H44.7263V20.2242H42.4671ZM43.5967 11.3466C43.1816 11.3466 42.8436 11.2259 42.583 10.9845C42.3223 10.7432 42.1919 10.4439 42.1919 10.0866C42.1919 9.7294 42.3223 9.4301 42.583 9.18873C42.8436 8.94736 43.1816 8.82667 43.5967 8.82667C44.0119 8.82667 44.3498 8.94253 44.6105 9.17425C44.8712 9.39631 45.0015 9.68595 45.0015 10.0432C45.0015 10.4197 44.8712 10.7335 44.6105 10.9845C44.3595 11.2259 44.0215 11.3466 43.5967 11.3466ZM48.9375 20.2242L45.6645 12.4327H47.9961L50.7188 19.138H49.5602L52.3843 12.4327H54.5566L51.2691 20.2242H48.9375ZM60.003 20.2242V18.7035L59.8582 18.3705V15.6478C59.8582 15.1651 59.7086 14.7885 59.4093 14.5182C59.1196 14.2479 58.6707 14.1127 58.0624 14.1127C57.6473 14.1127 57.2369 14.1803 56.8314 14.3154C56.4356 14.4409 56.0977 14.6147 55.8177 14.8368L55.0067 13.2582C55.4315 12.9589 55.9432 12.7272 56.5418 12.5631C57.1404 12.399 57.7486 12.3169 58.3665 12.3169C59.5541 12.3169 60.4761 12.5969 61.1327 13.1569C61.7892 13.7168 62.1174 14.5906 62.1174 15.7781V20.2242H60.003ZM57.628 20.34C57.0197 20.34 56.4983 20.2387 56.0639 20.0359C55.6294 19.8235 55.2963 19.5387 55.0646 19.1815C54.8329 18.8242 54.717 18.4236 54.717 17.9794C54.717 17.516 54.8281 17.1105 55.0501 16.7629C55.2818 16.4154 55.6439 16.145 56.1363 15.9519C56.6287 15.7492 57.2707 15.6478 58.0624 15.6478H60.1334V16.9657H58.3086C57.7776 16.9657 57.4107 17.0526 57.208 17.2264C57.0149 17.4001 56.9183 17.6174 56.9183 17.8781C56.9183 18.1677 57.0294 18.3994 57.2514 18.5732C57.4831 18.7373 57.7969 18.8194 58.1928 18.8194C58.5693 18.8194 58.9072 18.7325 59.2065 18.5587C59.5058 18.3753 59.723 18.1098 59.8582 17.7622L60.2058 18.8049C60.0417 19.307 59.7424 19.6883 59.3079 19.949C58.8734 20.2097 58.3134 20.34 57.628 20.34ZM67.3482 20.34C66.431 20.34 65.7166 20.1083 65.2049 19.6449C64.6932 19.1718 64.4373 18.4718 64.4373 17.545V10.7094H66.6965V17.516C66.6965 17.8443 66.7834 18.1001 66.9572 18.2836C67.131 18.4574 67.3675 18.5442 67.6668 18.5442C68.0241 18.5442 68.3282 18.4477 68.5792 18.2546L69.1875 19.8476C68.9558 20.0118 68.6758 20.1373 68.3475 20.2242C68.0289 20.3014 67.6958 20.34 67.3482 20.34ZM63.2353 14.3444V12.6065H68.6372V14.3444H63.2353ZM70.615 20.2242V10.0866H75.5679C76.8424 10.0866 77.7982 10.328 78.4354 10.8107C79.0823 11.2935 79.4057 11.9307 79.4057 12.7224C79.4057 13.2534 79.2754 13.7168 79.0147 14.1127C78.754 14.4989 78.3968 14.7982 77.943 15.0106C77.4892 15.223 76.9679 15.3292 76.3789 15.3292L76.6541 14.7354C77.2913 14.7354 77.8561 14.8416 78.3485 15.054C78.8409 15.2568 79.2223 15.5609 79.4926 15.9664C79.7726 16.3719 79.9126 16.8691 79.9126 17.4581C79.9126 18.327 79.5698 19.0077 78.8843 19.5001C78.1989 19.9828 77.1899 20.2242 75.8576 20.2242H70.615ZM72.9466 18.4574H75.6838C76.292 18.4574 76.7506 18.3608 77.0596 18.1677C77.3782 17.965 77.5375 17.6463 77.5375 17.2119C77.5375 16.7871 77.3782 16.4733 77.0596 16.2705C76.7506 16.0581 76.292 15.9519 75.6838 15.9519H72.7729V14.243H75.2783C75.8479 14.243 76.2824 14.1465 76.5817 13.9534C76.8906 13.7506 77.0451 13.4465 77.0451 13.041C77.0451 12.6452 76.8906 12.3507 76.5817 12.1576C76.2824 11.9548 75.8479 11.8535 75.2783 11.8535H72.9466V18.4574ZM86.3086 20.2242V18.7035L86.1638 18.3705V15.6478C86.1638 15.1651 86.0142 14.7885 85.7149 14.5182C85.4252 14.2479 84.9763 14.1127 84.368 14.1127C83.9529 14.1127 83.5425 14.1803 83.137 14.3154C82.7412 14.4409 82.4033 14.6147 82.1233 14.8368L81.3123 13.2582C81.7371 12.9589 82.2488 12.7272 82.8474 12.5631C83.446 12.399 84.0542 12.3169 84.6721 12.3169C85.8597 12.3169 86.7817 12.5969 87.4382 13.1569C88.0948 13.7168 88.423 14.5906 88.423 15.7781V20.2242H86.3086ZM83.9336 20.34C83.3253 20.34 82.8039 20.2387 82.3695 20.0359C81.935 19.8235 81.6019 19.5387 81.3702 19.1815C81.1385 18.8242 81.0226 18.4236 81.0226 17.9794C81.0226 17.516 81.1337 17.1105 81.3557 16.7629C81.5874 16.4154 81.9495 16.145 82.4419 15.9519C82.9343 15.7492 83.5763 15.6478 84.368 15.6478H86.439V16.9657H84.6142C84.0832 16.9657 83.7163 17.0526 83.5136 17.2264C83.3205 17.4001 83.2239 17.6174 83.2239 17.8781C83.2239 18.1677 83.335 18.3994 83.557 18.5732C83.7887 18.7373 84.1025 18.8194 84.4984 18.8194C84.8749 18.8194 85.2128 18.7325 85.5121 18.5587C85.8114 18.3753 86.0286 18.1098 86.1638 17.7622L86.5114 18.8049C86.3473 19.307 86.048 19.6883 85.6135 19.949C85.179 20.2097 84.619 20.34 83.9336 20.34ZM95.2034 12.3169C95.8213 12.3169 96.3717 12.4424 96.8544 12.6934C97.3468 12.9348 97.733 13.3113 98.013 13.823C98.293 14.3251 98.433 14.972 98.433 15.7637V20.2242H96.1737V16.1112C96.1737 15.4837 96.0337 15.0202 95.7538 14.7209C95.4834 14.4216 95.0972 14.272 94.5952 14.272C94.238 14.272 93.9145 14.3492 93.6249 14.5037C93.3449 14.6485 93.1228 14.8754 92.9587 15.1844C92.8042 15.4933 92.727 15.8892 92.727 16.3719V20.2242H90.4677V12.4327H92.6256V14.5906L92.2201 13.9389C92.5001 13.4175 92.9008 13.0169 93.4221 12.7369C93.9435 12.4569 94.5372 12.3169 95.2034 12.3169ZM102.349 18.6311L102.407 15.8795L106.042 12.4327H108.736L105.245 15.9809L104.072 16.9367L102.349 18.6311ZM100.481 20.2242V9.47837H102.74V20.2242H100.481ZM106.288 20.2242L103.652 16.9512L105.072 15.1989L109.025 20.2242H106.288Z" fill="#0E120A"/>
<path d="M16.9689 4.27528V16.1592H15.3503C14.6546 10.2811 10.9631 6.58959 5.07081 5.87968V4.26108H16.9689V4.27528ZM0.882324 0.086792V9.95458H2.98367C8.49259 9.95458 11.2896 12.7516 11.2896 18.2748V20.3761H21.1574V0.086792H0.882324Z" fill="#0E120A"/>
<path d="M8.80495 12.425H0.882324V20.3618H8.80495V12.425Z" fill="#0E120A"/>
</svg>
