<svg width="10" height="15" viewBox="0 0 10 15" fill="none" xmlns="http://www.w3.org/2000/svg">
<path d="M7.15833 6.66667H10V5H8.6C8.95 4.45 9.16667 3.9 9.16667 3.33333C9.16667 1.14167 7.08333 0 5 0C3.04167 0 1.275 1.71667 1.075 1.90833L2.25833 3.09167C2.65833 2.69167 3.925 1.66667 5 1.66667C5.86667 1.66667 7.5 2.01667 7.5 3.33333C7.5 3.75 7.08333 4.36667 6.46667 5H0V6.66667H4.69167C4.34167 6.96667 3.125 8.05833 2.84167 8.33333H0V10H1.4C1.05 10.55 0.833333 11.1 0.833333 11.6667C0.833333 13.8583 2.91667 15 5 15C6.95833 15 8.725 13.2833 8.925 13.0917L7.74167 11.9083C7.35 12.3083 6.075 13.3333 5 13.3333C4.13333 13.3333 2.5 12.9833 2.5 11.6667C2.5 11.25 2.91667 10.6333 3.53333 10H10V8.33333H5.31667L7.15833 6.66667Z" fill="#F0F1E6"/>
</svg>
