<svg fill="none" height="48" viewBox="0 0 180 48" width="180" xmlns="http://www.w3.org/2000/svg"> <g clip-path="url(#clip0_1_202)"> <path d="M43.9163 38.2029V31.5833H48.2383V32.3453H44.7807V38.2029H43.9163Z" fill="#373A36"></path> <path d="M55.8117 34.8389C55.8117 36.7786 54.7484 38.3642 52.6601 38.3642C50.5717 38.3642 49.5084 36.7478 49.5084 34.8235C49.5084 32.7606 50.74 31.429 52.6524 31.429C54.6948 31.429 55.8117 32.8684 55.8117 34.8389ZM50.3728 34.885C50.3728 36.54 51.2678 37.6099 52.6677 37.6099C54.0676 37.6099 54.9396 36.5323 54.9396 34.885C54.9396 33.2378 54.0446 32.191 52.6448 32.191C51.0919 32.191 50.3728 33.4764 50.3728 34.885Z" fill="#373A36"></path> <path d="M62.6119 38.2029H61.7399V32.3453H59.3073L59.1772 36.0708C59.1313 37.4024 58.6494 38.3415 57.655 38.3415C57.4714 38.3415 57.196 38.2799 57.0277 38.2106V37.464C57.1501 37.541 57.3949 37.5564 57.502 37.5564C57.9763 37.5564 58.3128 37.2947 58.3587 35.6166L58.4811 31.5833H62.6119V38.2029Z" fill="#373A36"></path> <path d="M70.9731 34.8389C70.9731 36.7786 69.9098 38.3642 67.8214 38.3642C65.7331 38.3642 64.6698 36.7478 64.6698 34.8235C64.6698 32.7606 65.9014 31.429 67.8138 31.429C69.8562 31.429 70.9731 32.8684 70.9731 34.8389ZM65.5342 34.885C65.5342 36.54 66.4292 37.6099 67.8291 37.6099C69.229 37.6099 70.101 36.5323 70.101 34.885C70.101 33.2378 69.206 32.191 67.8061 32.191C66.2533 32.191 65.5342 33.4764 65.5342 34.885Z" fill="#373A36"></path> <path d="M75.8303 31.5833C76.9242 31.5833 77.9263 32.022 77.9263 33.2382C77.9263 33.8924 77.5439 34.4467 76.9548 34.6622C77.7657 34.8469 78.2247 35.4627 78.2247 36.3325C78.2247 37.8566 76.9854 38.2029 75.7309 38.2029H73.0229V31.5833H75.8303ZM73.8721 34.4236H75.4326C76.1746 34.4236 77.0619 34.3697 77.0619 33.3767C77.0619 32.3838 76.297 32.3376 75.5167 32.3376H73.8721V34.4313V34.4236ZM73.8721 37.4717H75.6085C76.4882 37.4717 77.345 37.4178 77.345 36.2555C77.345 35.0932 76.3352 35.1086 75.4555 35.1086H73.8644V37.4717H73.8721Z" fill="#373A36"></path> <path d="M85.5149 38.2029H84.6428V35.1086H81.1699V38.2029H80.2979V31.5833H81.1699V34.3466H84.6428V31.5833H85.5149V38.2029Z" fill="#373A36"></path> <path d="M93.4475 38.2029H92.476L91.7493 36.1786H88.9878L88.2381 38.2029H87.3125L89.8981 31.5833H90.8772L93.4475 38.2029ZM90.3723 32.4223L89.2325 35.4781H91.4892L90.3723 32.4223Z" fill="#373A36"></path> <path d="M104.164 38.2029H103.3V32.3453H99.8194V38.2029H98.955V31.5833H104.164V38.2029Z" fill="#373A36"></path> <path d="M112.533 34.8389C112.533 36.7786 111.47 38.3642 109.382 38.3642C107.293 38.3642 106.23 36.7478 106.23 34.8235C106.23 32.7606 107.462 31.429 109.374 31.429C111.416 31.429 112.533 32.8684 112.533 34.8389ZM107.094 34.885C107.094 36.54 107.989 37.6099 109.389 37.6099C110.789 37.6099 111.661 36.5323 111.661 34.885C111.661 33.2378 110.766 32.191 109.366 32.191C107.813 32.191 107.094 33.4764 107.094 34.885Z" fill="#373A36"></path> <path d="M114.575 31.5833H115.447V37.4409H118.369V31.5833H119.234V37.4409H122.156V31.5833H123.028V38.2029H114.575V31.5833Z" fill="#373A36"></path> <path d="M130.166 32.3453H127.955V38.2029H127.09V32.3453H124.88V31.5833H130.166V32.3453Z" fill="#373A36"></path> <path d="M136.614 38.2029H135.643L134.908 36.1786H132.147L131.397 38.2029H130.471L133.057 31.5833H134.036L136.606 38.2029H136.614ZM133.531 32.4223L132.391 35.4781H134.648L133.531 32.4223Z" fill="#373A36"></path> <path d="M144.684 34.2465L147.568 38.2029H146.459L144.072 34.8392L142.986 35.8784V38.2029H142.114V31.5833H142.986V34.87L146.321 31.5833H147.461L144.684 34.2465Z" fill="#373A36"></path> <path d="M152.112 31.5903C153.367 31.5903 154.308 32.1214 154.308 33.4993C154.308 34.9925 153.344 35.5006 152.059 35.5006H150.276V38.2177H149.404V31.598H152.112V31.5903ZM150.276 34.7539H151.952C152.793 34.7539 153.443 34.523 153.443 33.5455C153.443 32.4832 152.694 32.337 151.837 32.337H150.284V34.7539H150.276Z" fill="#373A36"></path> <path d="M161.231 38.2029H160.259L159.525 36.1786H156.763L156.014 38.2029H155.088L157.674 31.5833H158.653L161.223 38.2029H161.231ZM158.156 32.4223L157.016 35.4781H159.272L158.156 32.4223Z" fill="#373A36"></path> <path d="M163.021 31.0209H162.187V30.0818H163.021V31.0209ZM163.908 38.2025H163.036V31.5828H163.908V38.2025ZM164.772 31.0209H163.939V30.0818H164.772V31.0209Z" fill="#373A36"></path> <path d="M171.527 38.2029H170.662V35.1086H167.182V38.2029H166.317V31.5833H167.182V34.3466H170.662V31.5833H171.527V38.2029Z" fill="#373A36"></path> <path d="M173.921 31.5833H174.793V37.1946H174.808L178.037 31.5833H179.138V38.2029H178.266V32.5839H178.251L175.015 38.2029H173.921V31.5833Z" fill="#373A36"></path> <path d="M45.0716 9.49854C45.2399 9.49854 45.3547 9.55242 45.4082 9.66788L50.1127 17.7501H50.3346L54.3353 9.78334C54.4194 9.58321 54.5877 9.49854 54.8172 9.49854H57.6935C57.9459 9.49854 58.0912 9.75255 57.9765 9.95268L49.692 24.7007C49.6078 24.8701 49.4395 24.9547 49.2101 24.9547H46.395C46.089 24.9547 46.0584 24.7546 46.1732 24.5314L48.3992 20.7058L41.7517 9.8757C41.637 9.67557 41.7211 9.50623 41.92 9.50623H45.0793L45.0716 9.49854Z" fill="#373A36"></path> <path d="M62.9255 9.49915C63.1779 9.49915 63.3233 9.6377 63.3233 9.89941V15.9649L69.6648 9.73007C69.8331 9.59152 70.0855 9.50685 70.3991 9.50685H73.8414C74.0939 9.50685 74.178 9.73007 73.9791 9.9302L67.2399 16.2805L74.3999 24.532C74.5988 24.7321 74.484 24.9554 74.2316 24.9554H70.8505C70.5445 24.9554 70.315 24.8707 70.1467 24.6706L64.7843 18.3049L63.3309 19.6673V24.5551C63.3309 24.8091 63.1932 24.9554 62.9331 24.9554H60.4547C60.2022 24.9554 60.0569 24.8168 60.0569 24.5551V9.89172C60.0569 9.6377 60.1946 9.49146 60.4547 9.49146H62.9331L62.9255 9.49915Z" fill="#373A36"></path> <path d="M83.7404 9.49915C87.1521 9.49915 89.7147 11.97 89.7147 15.1413C89.7147 18.3126 87.1521 20.845 83.7404 20.845H79.6555V24.5628C79.6555 24.8168 79.5178 24.9631 79.2577 24.9631H76.7793C76.5268 24.9631 76.3815 24.8245 76.3815 24.5628V9.89172C76.3815 9.6377 76.5192 9.49146 76.7793 9.49146H83.7404V9.49915ZM83.7404 17.7199C85.4615 17.7199 86.4483 16.6423 86.4483 15.1413C86.4483 13.6403 85.4615 12.6166 83.7404 12.6166H79.6555V17.7199H83.7404Z" fill="#373A36"></path> <path d="M105.121 9.49915C105.373 9.49915 105.519 9.6377 105.519 9.89941V24.5628C105.519 24.8168 105.373 24.9631 105.121 24.9631H102.642C102.39 24.9631 102.245 24.8245 102.245 24.5628V12.5935H95.4211V24.5628C95.4211 24.8168 95.2834 24.9631 95.0233 24.9631H92.5449C92.2924 24.9631 92.1471 24.8245 92.1471 24.5628V9.89172C92.1471 9.6377 92.2924 9.49146 92.5449 9.49146H105.113L105.121 9.49915Z" fill="#373A36"></path> <path d="M116.518 9.26831C120.94 9.26831 124.581 12.7013 124.581 17.235C124.581 21.7688 120.948 25.1787 116.518 25.1787C112.089 25.1787 108.433 21.8072 108.433 17.235C108.433 12.6628 112.066 9.26831 116.518 9.26831ZM111.722 17.2427C111.722 20.0523 113.696 22.092 116.511 22.092C119.326 22.092 121.277 20.0523 121.277 17.2427C121.277 14.4332 119.303 12.3626 116.511 12.3626C113.719 12.3626 111.722 14.3793 111.722 17.2427Z" fill="#373A36"></path> <path d="M135.52 21.861V9.89172C135.52 9.6377 135.658 9.49146 135.918 9.49146H138.343C138.596 9.49146 138.741 9.63001 138.741 9.89172V21.861H143.56V9.89172C143.56 9.6377 143.698 9.49146 143.95 9.49146H146.375C146.628 9.49146 146.773 9.63001 146.773 9.89172V24.5551C146.773 24.8091 146.635 24.9554 146.375 24.9554H127.886C127.687 24.9554 127.488 24.8168 127.488 24.5551V9.89172C127.488 9.6377 127.626 9.49146 127.886 9.49146H130.311C130.564 9.49146 130.709 9.63001 130.709 9.89172V21.861H135.528H135.52Z" fill="#373A36"></path> <path d="M162.424 9.49854C162.676 9.49854 162.822 9.63709 162.822 9.8988V12.2234C162.822 12.4774 162.676 12.6236 162.424 12.6236H157.52V24.5622C157.52 24.8162 157.375 24.9624 157.123 24.9624H154.644C154.392 24.9624 154.246 24.8239 154.246 24.5622V12.6236H149.343C149.091 12.6236 148.945 12.4851 148.945 12.2234V9.8988C148.945 9.64478 149.083 9.49854 149.343 9.49854H162.424Z" fill="#373A36"></path> <path d="M174.487 21.8912H166.822L165.751 24.6161C165.667 24.847 165.499 24.9547 165.27 24.9547H162.477C162.194 24.9547 162.11 24.8162 162.194 24.5545L168.842 9.72176C168.895 9.58321 169.01 9.49854 169.209 9.49854H172.422C172.621 9.49854 172.736 9.58321 172.789 9.72176L179.131 24.4929C179.215 24.7238 179.077 24.9471 178.817 24.9471H176.14C175.857 24.9471 175.658 24.8085 175.551 24.5468L174.48 21.8835L174.487 21.8912ZM168 18.9124H173.355L170.877 12.5621H170.571L168.008 18.9124H168Z" fill="#373A36"></path> <path d="M31.4856 27.6801L15.6203 24.0701C10.8929 22.9924 7.92486 18.2663 8.9958 13.5016C10.0667 8.74471 14.7636 5.75815 19.4987 6.83577C24.2261 7.9134 27.1942 12.6395 26.1232 17.4042C25.5878 19.7827 24.142 21.7224 22.2372 22.9309C22.1837 22.9694 22.1455 23.0386 22.1455 23.1079C22.1455 23.208 22.2143 23.3003 22.3137 23.3234L29.3743 24.9322C29.5426 24.9707 29.7185 24.9091 29.818 24.7705C31.761 22.1842 32.9314 18.9513 32.9314 15.4568C32.9237 7.22834 26.5363 0.50088 18.4736 0.0236459C18.4048 0.0236459 17.9688 0.000553902 17.8158 0.000553902C14.2511 -0.0533273 10.6328 0.970416 7.48884 3.18724C-0.451441 8.79089 -2.38679 19.8058 3.17447 27.7956L17.288 48.078C17.3492 48.1627 17.441 48.2166 17.5557 48.2166C17.6704 48.2166 17.7622 48.1627 17.8234 48.078L31.6845 28.1881C31.7227 28.1343 31.738 28.0727 31.738 28.0034C31.738 27.8495 31.6309 27.7186 31.4856 27.6801Z" fill="#FFC629"></path> </g> <defs> <clipPath id="clip0_1_202"> <rect fill="white" height="48" width="180"></rect> </clipPath> </defs> </svg>