<svg width="28" height="27" viewBox="0 0 28 27" fill="none" xmlns="http://www.w3.org/2000/svg">
<path fill-rule="evenodd" clip-rule="evenodd" d="M17.1992 0C18.7529 0 20.1862 0.271484 21.499 0.813477C22.8238 1.35546 23.9681 2.10779 24.9316 3.07129C25.8952 4.02279 26.6484 5.16699 27.1904 6.50391C27.7324 7.82873 28.0029 9.27416 28.0029 10.8398V15.79C28.0029 17.3678 27.7324 18.8197 27.1904 20.1445C26.6484 21.4693 25.8951 22.6137 24.9316 23.5771C23.9681 24.5406 22.8238 25.293 21.499 25.835C20.1862 26.3649 18.7529 26.6299 17.1992 26.6299H10.8398C9.2863 26.6299 7.84721 26.3648 6.52246 25.835C5.19781 25.2931 4.05328 24.5405 3.08984 23.5771C2.12644 22.6138 1.36749 21.4692 0.813477 20.1445C0.271484 18.8197 0 17.3678 0 15.79V10.8398C0 9.27409 0.271484 7.82878 0.813477 6.50391C1.36751 5.16707 2.12634 4.02275 3.08984 3.07129C4.05333 2.10786 5.1977 1.35542 6.52246 0.813477C7.84726 0.271552 9.28623 0 10.8398 0H17.1992ZM18.1494 14C17.8083 15.5711 16.5711 16.8063 15 17.1475V21.9326H17.1631C18.0785 21.9326 18.9095 21.7881 19.6562 21.499C20.4149 21.198 21.0655 20.7828 21.6074 20.2529C22.1494 19.7109 22.5654 19.0661 22.8545 18.3193C23.1556 17.5606 23.3057 16.7174 23.3057 15.79V14H18.1494ZM4.69727 15.79C4.69727 16.7174 4.8418 17.5605 5.13086 18.3193C5.43197 19.0661 5.85352 19.7109 6.39551 20.2529C6.93745 20.7828 7.58247 21.198 8.3291 21.499C9.08778 21.788 9.92465 21.9326 10.8398 21.9326H13.3516V17.1709C11.7291 16.8642 10.4437 15.6071 10.0947 14H4.69727V15.79ZM11.8115 14C12.0758 14.6942 12.6424 15.2372 13.3516 15.4697V14H11.8115ZM15 15.4307C15.6584 15.18 16.1811 14.6585 16.4316 14H15V15.4307ZM15 9.09375C16.6069 9.44272 17.8631 10.7292 18.1699 12.3516H23.3057V10.8398C23.3057 9.91268 23.1554 9.0757 22.8545 8.3291C22.5654 7.57031 22.1494 6.92546 21.6074 6.39551C21.0776 5.85366 20.4333 5.43847 19.6748 5.14941C18.9281 4.84831 18.1025 4.69727 17.1992 4.69727H15V9.09375ZM10.8398 4.69727C9.92458 4.69727 9.08782 4.84837 8.3291 5.14941C7.58236 5.43848 6.9375 5.85352 6.39551 6.39551C5.85352 6.92546 5.43197 7.57031 5.13086 8.3291C4.84191 9.07574 4.69727 9.91261 4.69727 10.8398V12.3516H10.0732C10.387 10.6932 11.6931 9.38596 13.3516 9.07227V4.69727H10.8398ZM13.3516 10.7725C12.6057 11.017 12.017 11.6057 11.7725 12.3516H13.3516V10.7725ZM15 12.3516H16.4707C16.2382 11.6422 15.6943 11.0758 15 10.8115V12.3516Z" fill="#8D8C5F"/>
</svg>
