<svg width="23" height="24" viewBox="0 0 23 24" fill="none" xmlns="http://www.w3.org/2000/svg">
<path d="M11.4998 0.666664C13.0027 0.666664 14.4441 1.26369 15.5068 2.32639C16.5695 3.3891 17.1665 4.83044 17.1665 6.33333C17.1665 7.83622 16.5695 9.27756 15.5068 10.3403C14.4441 11.403 13.0027 12 11.4998 12C9.99694 12 8.5556 11.403 7.4929 10.3403C6.43019 9.27756 5.83317 7.83622 5.83317 6.33333C5.83317 4.83044 6.43019 3.3891 7.4929 2.32639C8.5556 1.26369 9.99694 0.666664 11.4998 0.666664ZM11.4998 14.8333C17.7615 14.8333 22.8332 17.3692 22.8332 20.5V23.3333H0.166504V20.5C0.166504 17.3692 5.23817 14.8333 11.4998 14.8333Z" fill="#3E4826"/>
<path d="M11.4998 0.666664C13.0027 0.666664 14.4441 1.26369 15.5068 2.32639C16.5695 3.3891 17.1665 4.83044 17.1665 6.33333C17.1665 7.83622 16.5695 9.27756 15.5068 10.3403C14.4441 11.403 13.0027 12 11.4998 12C9.99694 12 8.5556 11.403 7.4929 10.3403C6.43019 9.27756 5.83317 7.83622 5.83317 6.33333C5.83317 4.83044 6.43019 3.3891 7.4929 2.32639C8.5556 1.26369 9.99694 0.666664 11.4998 0.666664ZM11.4998 14.8333C17.7615 14.8333 22.8332 17.3692 22.8332 20.5V23.3333H0.166504V20.5C0.166504 17.3692 5.23817 14.8333 11.4998 14.8333Z" fill="url(#paint0_linear_947_795)" fill-opacity="0.5"/>
<defs>
<linearGradient id="paint0_linear_947_795" x1="11.4998" y1="0.666664" x2="11.4998" y2="23.3333" gradientUnits="userSpaceOnUse">
<stop stop-opacity="0"/>
<stop offset="1"/>
</linearGradient>
</defs>
</svg>
