<svg width="34" height="23" viewBox="0 0 34 23" fill="none" xmlns="http://www.w3.org/2000/svg">
<path d="M13.6 16.4286L22.423 11.5L13.6 6.57143V16.4286ZM33.252 3.565C33.473 4.33714 33.626 5.37214 33.728 6.68643C33.847 8.00071 33.898 9.13429 33.898 10.12L34 11.5C34 15.0979 33.728 17.7429 33.252 19.435C32.827 20.9136 31.841 21.8664 30.311 22.2771C29.512 22.4907 28.05 22.6386 25.806 22.7371C23.596 22.8521 21.573 22.9014 19.703 22.9014L17 23C9.877 23 5.44 22.7371 3.689 22.2771C2.159 21.8664 1.173 20.9136 0.748 19.435C0.527 18.6629 0.374 17.6279 0.272 16.3136C0.153 14.9993 0.102 13.8657 0.102 12.88L0 11.5C0 7.90214 0.272 5.25714 0.748 3.565C1.173 2.08643 2.159 1.13357 3.689 0.722857C4.488 0.509286 5.95 0.361428 8.194 0.262857C10.404 0.147857 12.427 0.0985713 14.297 0.0985713L17 0C24.123 0 28.56 0.262857 30.311 0.722857C31.841 1.13357 32.827 2.08643 33.252 3.565Z" fill="#F0F1E6"/>
</svg>
