<svg width="485" height="429" viewBox="0 0 485 429" fill="none" xmlns="http://www.w3.org/2000/svg">
<mask id="mask0_523_2567" style="mask-type:luminance" maskUnits="userSpaceOnUse" x="28" y="27" width="285" height="286">
<path d="M260.112 107.566C269.116 120.474 275.212 135.182 277.979 150.675H311.784V189.206H277.979C275.212 204.699 269.116 219.407 260.112 232.315L284.027 256.23L256.778 283.478L232.864 259.564C219.955 268.568 205.247 274.663 189.755 277.431V311.236H151.224V277.431C135.731 274.663 121.023 268.568 108.115 259.564L84.2004 283.478L56.9517 256.23L80.8658 232.315C71.8624 219.407 65.7666 204.699 62.9991 189.206H29.1943V150.675H62.9991C65.7666 135.182 71.8624 120.474 80.8658 107.566L56.9517 83.6521L84.2004 56.4034L108.115 80.3175C121.023 71.3141 135.731 65.2183 151.224 62.4508V28.646H189.755V62.4508C205.247 65.2183 219.955 71.3141 232.864 80.3175L256.778 56.4034L284.027 83.6521L260.112 107.566Z" fill="white" stroke="white" stroke-width="2" stroke-linejoin="round"/>
<path d="M170.489 205.264C179.857 205.264 188.842 201.543 195.466 194.918C202.091 188.294 205.812 179.309 205.812 169.941C205.812 160.572 202.091 151.588 195.466 144.963C188.842 138.339 179.857 134.617 170.489 134.617C161.12 134.617 152.136 138.339 145.511 144.963C138.887 151.588 135.165 160.572 135.165 169.941C135.165 179.309 138.887 188.294 145.511 194.918C152.136 201.543 161.12 205.264 170.489 205.264Z" fill="black" stroke="black" stroke-width="2" stroke-linejoin="round"/>
</mask>
<g mask="url(#mask0_523_2567)">
<path d="M0.935547 0.387085H340.043V339.495H0.935547V0.387085Z" fill="#E5E5D8" fill-opacity="0.49"/>
</g>
<mask id="mask1_523_2567" style="mask-type:luminance" maskUnits="userSpaceOnUse" x="254" y="197" width="212" height="212">
<path d="M425.941 256.676C432.593 266.214 437.097 277.081 439.142 288.529H464.12V316.998H439.142C437.097 328.446 432.593 339.313 425.941 348.851L443.61 366.52L423.477 386.654L405.807 368.984C396.27 375.637 385.402 380.141 373.955 382.185V407.163H345.485V382.185C334.038 380.141 323.17 375.637 313.633 368.984L295.963 386.654L275.83 366.52L293.499 348.851C286.847 339.313 282.343 328.446 280.298 316.998H255.32V288.529H280.298C282.343 277.081 286.847 266.214 293.499 256.676L275.83 239.007L295.963 218.873L313.633 236.543C323.17 229.89 334.038 225.386 345.485 223.341V198.364H373.955V223.341C385.402 225.386 396.27 229.89 405.807 236.543L423.477 218.873L443.61 239.007L425.941 256.676Z" fill="white" stroke="white" stroke-width="2" stroke-linejoin="round"/>
<path d="M359.72 328.863C366.642 328.863 373.281 326.113 378.175 321.219C383.07 316.324 385.82 309.685 385.82 302.763C385.82 295.841 383.07 289.203 378.175 284.308C373.281 279.413 366.642 276.663 359.72 276.663C352.798 276.663 346.159 279.413 341.265 284.308C336.37 289.203 333.62 295.841 333.62 302.763C333.62 309.685 336.37 316.324 341.265 321.219C346.159 326.113 352.798 328.863 359.72 328.863Z" fill="black" stroke="black" stroke-width="2" stroke-linejoin="round"/>
</mask>
<g mask="url(#mask1_523_2567)">
<path d="M234.44 177.484H485V428.043H234.44V177.484Z" fill="#E5E5D8" fill-opacity="0.49"/>
</g>
</svg>
